<mxfile host="app.diagrams.net" modified="2024-07-02T03:18:34.222Z" agent="Mozilla/5.0 (Windows NT 10.0; Win64; x64) AppleWebKit/537.36 (KHTML, like Gecko) Chrome/125.0.0.0 Safari/537.36 Edg/125.0.0.0" etag="awkOqwhoMLibcdSsoHRe" version="24.6.4" type="github">
  <diagram name="第 1 页" id="uAyjdqbHVxO7iasdIEQN">
    <mxGraphModel dx="477" dy="275" grid="1" gridSize="10" guides="1" tooltips="1" connect="1" arrows="1" fold="0" page="1" pageScale="1" pageWidth="827" pageHeight="1169" math="0" shadow="0">
      <root>
        <mxCell id="0" />
        <mxCell id="1" parent="0" />
        <mxCell id="d3YoMlKUpMvgJWGNqZQv-6" style="edgeStyle=orthogonalEdgeStyle;rounded=0;orthogonalLoop=1;jettySize=auto;html=1;entryX=0;entryY=0.5;entryDx=0;entryDy=0;exitX=0;exitY=0.5;exitDx=0;exitDy=0;" parent="1" source="S7OevWP9PczpmDWNFOSD-1" target="S7OevWP9PczpmDWNFOSD-2" edge="1">
          <mxGeometry relative="1" as="geometry">
            <Array as="points">
              <mxPoint x="190" y="120" />
              <mxPoint x="190" y="145" />
            </Array>
          </mxGeometry>
        </mxCell>
        <mxCell id="S7OevWP9PczpmDWNFOSD-1" value="&lt;font style=&quot;font-size: 18px;&quot; face=&quot;Times New Roman&quot;&gt;GPU&lt;/font&gt;" style="rounded=0;whiteSpace=wrap;html=1;" parent="1" vertex="1">
          <mxGeometry x="200" y="110" width="80" height="20" as="geometry" />
        </mxCell>
        <mxCell id="S7OevWP9PczpmDWNFOSD-2" value="&lt;font face=&quot;Times New Roman&quot; style=&quot;font-size: 18px;&quot;&gt;DRAM&lt;/font&gt;" style="rounded=0;whiteSpace=wrap;html=1;strokeColor=default;align=center;verticalAlign=middle;fontFamily=Helvetica;fontSize=12;fontColor=default;fillColor=default;" parent="1" vertex="1">
          <mxGeometry x="200" y="135" width="80" height="20" as="geometry" />
        </mxCell>
        <mxCell id="S7OevWP9PczpmDWNFOSD-3" value="" style="endArrow=none;html=1;rounded=0;" parent="1" edge="1">
          <mxGeometry width="50" height="50" relative="1" as="geometry">
            <mxPoint x="190" y="164.12" as="sourcePoint" />
            <mxPoint x="290" y="164.12" as="targetPoint" />
          </mxGeometry>
        </mxCell>
        <mxCell id="S7OevWP9PczpmDWNFOSD-4" value="&lt;font style=&quot;font-size: 18px;&quot; face=&quot;Times New Roman&quot;&gt;SSD&lt;/font&gt;" style="rounded=0;whiteSpace=wrap;html=1;" parent="1" vertex="1">
          <mxGeometry x="200" y="169" width="80" height="21" as="geometry" />
        </mxCell>
        <mxCell id="d3YoMlKUpMvgJWGNqZQv-1" value="" style="endArrow=none;html=1;rounded=0;dashed=1;" parent="1" edge="1">
          <mxGeometry width="50" height="50" relative="1" as="geometry">
            <mxPoint x="189.5" y="159.88" as="sourcePoint" />
            <mxPoint x="290.5" y="159.64" as="targetPoint" />
          </mxGeometry>
        </mxCell>
        <mxCell id="d3YoMlKUpMvgJWGNqZQv-2" value="" style="endArrow=none;html=1;rounded=0;dashed=1;" parent="1" edge="1">
          <mxGeometry width="50" height="50" relative="1" as="geometry">
            <mxPoint x="179.5" y="79.72" as="sourcePoint" />
            <mxPoint x="200" y="79.60000000000001" as="targetPoint" />
          </mxGeometry>
        </mxCell>
        <mxCell id="d3YoMlKUpMvgJWGNqZQv-3" value="&lt;font style=&quot;font-size: 10px;&quot; face=&quot;Times New Roman&quot;&gt;Storage-Compute Boundary&lt;/font&gt;" style="text;html=1;align=center;verticalAlign=bottom;whiteSpace=wrap;rounded=0;fontSize=16;" parent="1" vertex="1">
          <mxGeometry x="200" y="68.88" width="120" height="20" as="geometry" />
        </mxCell>
        <mxCell id="d3YoMlKUpMvgJWGNqZQv-4" value="" style="endArrow=none;html=1;rounded=0;" parent="1" edge="1">
          <mxGeometry width="50" height="50" relative="1" as="geometry">
            <mxPoint x="180" y="100" as="sourcePoint" />
            <mxPoint x="200" y="100" as="targetPoint" />
          </mxGeometry>
        </mxCell>
        <mxCell id="d3YoMlKUpMvgJWGNqZQv-5" value="&lt;font style=&quot;font-size: 10px;&quot; face=&quot;Times New Roman&quot;&gt;Volatility Boundary&lt;/font&gt;" style="text;html=1;align=center;verticalAlign=bottom;whiteSpace=wrap;rounded=0;fontSize=16;" parent="1" vertex="1">
          <mxGeometry x="182" y="88.88" width="120" height="20" as="geometry" />
        </mxCell>
        <mxCell id="FZz3AoyLEZLwOvEeoEuZ-1" value="&lt;font style=&quot;font-size: 18px;&quot; face=&quot;Times New Roman&quot;&gt;GPU&lt;/font&gt;" style="rounded=0;whiteSpace=wrap;html=1;" vertex="1" parent="1">
          <mxGeometry x="323" y="85" width="80" height="20" as="geometry" />
        </mxCell>
        <mxCell id="FZz3AoyLEZLwOvEeoEuZ-2" value="&lt;font face=&quot;Times New Roman&quot; style=&quot;font-size: 18px;&quot;&gt;DRAM&lt;/font&gt;" style="rounded=0;whiteSpace=wrap;html=1;strokeColor=default;align=center;verticalAlign=middle;fontFamily=Helvetica;fontSize=12;fontColor=default;fillColor=default;" vertex="1" parent="1">
          <mxGeometry x="323" y="110" width="80" height="20" as="geometry" />
        </mxCell>
        <mxCell id="FZz3AoyLEZLwOvEeoEuZ-3" value="&lt;font style=&quot;font-size: 18px;&quot; face=&quot;Times New Roman&quot;&gt;SSD&lt;/font&gt;" style="rounded=0;whiteSpace=wrap;html=1;" vertex="1" parent="1">
          <mxGeometry x="323" y="170" width="80" height="20" as="geometry" />
        </mxCell>
        <mxCell id="FZz3AoyLEZLwOvEeoEuZ-4" value="" style="endArrow=none;html=1;rounded=0;dashed=1;" edge="1" parent="1">
          <mxGeometry width="50" height="50" relative="1" as="geometry">
            <mxPoint x="312.5" y="165.24" as="sourcePoint" />
            <mxPoint x="413.5" y="165" as="targetPoint" />
          </mxGeometry>
        </mxCell>
        <mxCell id="FZz3AoyLEZLwOvEeoEuZ-5" value="&lt;font style=&quot;font-size: 18px;&quot; face=&quot;Times New Roman&quot;&gt;NVM&lt;/font&gt;" style="rounded=0;whiteSpace=wrap;html=1;" vertex="1" parent="1">
          <mxGeometry x="323" y="140" width="80" height="20" as="geometry" />
        </mxCell>
        <mxCell id="FZz3AoyLEZLwOvEeoEuZ-6" value="" style="endArrow=none;html=1;rounded=0;" edge="1" parent="1">
          <mxGeometry width="50" height="50" relative="1" as="geometry">
            <mxPoint x="312" y="135" as="sourcePoint" />
            <mxPoint x="412" y="135" as="targetPoint" />
          </mxGeometry>
        </mxCell>
      </root>
    </mxGraphModel>
  </diagram>
</mxfile>
